<svg width="48" height="48" viewBox="0 0 48 48" fill="none" xmlns="http://www.w3.org/2000/svg">
<path d="M0 12C0 5.37258 5.37258 0 12 0H36C42.6274 0 48 5.37258 48 12V36C48 42.6274 42.6274 48 36 48H12C5.37258 48 0 42.6274 0 36V12Z" fill="#C1DCDC"/>
<path d="M28.6776 26.93C29.888 25.2784 30.4301 23.2306 30.1955 21.1964C29.9609 19.1623 28.9669 17.2917 27.4123 15.9589C25.8578 14.6262 23.8573 13.9295 21.8112 14.0083C19.765 14.0872 17.8241 14.9357 16.3767 16.3841C14.9293 17.8326 14.0822 19.7741 14.0048 21.8203C13.9274 23.8665 14.6255 25.8664 15.9594 27.4201C17.2932 28.9737 19.1645 29.9663 21.1989 30.1995C23.2332 30.4326 25.2806 29.8891 26.9314 28.6775H26.9301C26.9676 28.7275 27.0076 28.775 27.0526 28.8213L31.8651 33.6338C32.0995 33.8683 32.4175 34.0001 32.749 34.0003C33.0806 34.0004 33.3987 33.8688 33.6332 33.6344C33.8678 33.4 33.9996 33.082 33.9997 32.7504C33.9999 32.4189 33.8682 32.1008 33.6339 31.8662L28.8214 27.0537C28.7767 27.0085 28.7286 26.968 28.6776 26.93ZM29.0001 22.125C29.0001 23.0278 28.8223 23.9218 28.4768 24.7559C28.1313 25.5901 27.6249 26.348 26.9865 26.9864C26.3481 27.6248 25.5902 28.1312 24.7561 28.4767C23.9219 28.8222 23.0279 29 22.1251 29C21.2223 29 20.3283 28.8222 19.4942 28.4767C18.66 28.1312 17.9022 27.6248 17.2638 26.9864C16.6253 26.348 16.1189 25.5901 15.7734 24.7559C15.4279 23.9218 15.2501 23.0278 15.2501 22.125C15.2501 20.3016 15.9744 18.553 17.2638 17.2636C18.5531 15.9743 20.3017 15.25 22.1251 15.25C23.9485 15.25 25.6972 15.9743 26.9865 17.2636C28.2758 18.553 29.0001 20.3016 29.0001 22.125Z" fill="#1E1E1E"/>
</svg>
